<?xml version="1.0" encoding="UTF-8" standalone="no"?>
<!-- This is a Stata 18.0 generated SVG file (http://www.stata.com) -->

<svg version="1.1" width="7.500in" height="4.500in" viewBox="0 0 5400 3240" xmlns="http://www.w3.org/2000/svg" xmlns:xlink="http://www.w3.org/1999/xlink">
	<desc>Stata Graph - Graph</desc>
	<rect x="0" y="0" width="5400" height="3240" style="fill:#FFFFFF;stroke:none"/>
	<rect x="0.00" y="0.00" width="5400.00" height="3240.00" style="fill:#FFFFFF"/>
	<rect x="3.24" y="3.24" width="5393.52" height="3233.52" style="fill:none;stroke:#FFFFFF;stroke-width:6.48"/>
	<rect x="557.89" y="113.40" width="2815.59" height="2653.26" style="fill:#FFFFFF"/>
	<rect x="561.13" y="116.64" width="2809.11" height="2646.78" style="fill:none;stroke:#FFFFFF;stroke-width:6.48"/>
	<line x1="557.89" y1="2766.66" x2="622.69" y2="2766.66" style="stroke:#F0F0F0;stroke-width:9.72"/>
	<line x1="655.09" y1="2766.66" x2="719.89" y2="2766.66" style="stroke:#F0F0F0;stroke-width:9.72"/>
	<line x1="752.29" y1="2766.66" x2="817.09" y2="2766.66" style="stroke:#F0F0F0;stroke-width:9.72"/>
	<line x1="849.49" y1="2766.66" x2="914.29" y2="2766.66" style="stroke:#F0F0F0;stroke-width:9.72"/>
	<line x1="946.69" y1="2766.66" x2="1011.49" y2="2766.66" style="stroke:#F0F0F0;stroke-width:9.72"/>
	<line x1="1043.89" y1="2766.66" x2="1108.69" y2="2766.66" style="stroke:#F0F0F0;stroke-width:9.72"/>
	<line x1="1141.09" y1="2766.66" x2="1205.89" y2="2766.66" style="stroke:#F0F0F0;stroke-width:9.72"/>
	<line x1="1238.29" y1="2766.66" x2="1303.09" y2="2766.66" style="stroke:#F0F0F0;stroke-width:9.72"/>
	<line x1="1335.49" y1="2766.66" x2="1400.29" y2="2766.66" style="stroke:#F0F0F0;stroke-width:9.72"/>
	<line x1="1432.69" y1="2766.66" x2="1497.49" y2="2766.66" style="stroke:#F0F0F0;stroke-width:9.72"/>
	<line x1="1529.89" y1="2766.66" x2="1594.69" y2="2766.66" style="stroke:#F0F0F0;stroke-width:9.72"/>
	<line x1="1627.09" y1="2766.66" x2="1691.89" y2="2766.66" style="stroke:#F0F0F0;stroke-width:9.72"/>
	<line x1="1724.29" y1="2766.66" x2="1789.09" y2="2766.66" style="stroke:#F0F0F0;stroke-width:9.72"/>
	<line x1="1821.49" y1="2766.66" x2="1886.29" y2="2766.66" style="stroke:#F0F0F0;stroke-width:9.72"/>
	<line x1="1918.69" y1="2766.66" x2="1983.49" y2="2766.66" style="stroke:#F0F0F0;stroke-width:9.72"/>
	<line x1="2015.89" y1="2766.66" x2="2080.69" y2="2766.66" style="stroke:#F0F0F0;stroke-width:9.72"/>
	<line x1="2113.09" y1="2766.66" x2="2177.89" y2="2766.66" style="stroke:#F0F0F0;stroke-width:9.72"/>
	<line x1="2210.29" y1="2766.66" x2="2275.09" y2="2766.66" style="stroke:#F0F0F0;stroke-width:9.72"/>
	<line x1="2307.49" y1="2766.66" x2="2372.29" y2="2766.66" style="stroke:#F0F0F0;stroke-width:9.72"/>
	<line x1="2404.69" y1="2766.66" x2="2469.49" y2="2766.66" style="stroke:#F0F0F0;stroke-width:9.72"/>
	<line x1="2501.89" y1="2766.66" x2="2566.69" y2="2766.66" style="stroke:#F0F0F0;stroke-width:9.72"/>
	<line x1="2599.09" y1="2766.66" x2="2663.89" y2="2766.66" style="stroke:#F0F0F0;stroke-width:9.72"/>
	<line x1="2696.29" y1="2766.66" x2="2761.09" y2="2766.66" style="stroke:#F0F0F0;stroke-width:9.72"/>
	<line x1="2793.49" y1="2766.66" x2="2858.29" y2="2766.66" style="stroke:#F0F0F0;stroke-width:9.72"/>
	<line x1="2890.69" y1="2766.66" x2="2955.49" y2="2766.66" style="stroke:#F0F0F0;stroke-width:9.72"/>
	<line x1="2987.89" y1="2766.66" x2="3052.69" y2="2766.66" style="stroke:#F0F0F0;stroke-width:9.72"/>
	<line x1="3085.09" y1="2766.66" x2="3149.89" y2="2766.66" style="stroke:#F0F0F0;stroke-width:9.72"/>
	<line x1="3182.29" y1="2766.66" x2="3247.09" y2="2766.66" style="stroke:#F0F0F0;stroke-width:9.72"/>
	<line x1="3279.49" y1="2766.66" x2="3344.29" y2="2766.66" style="stroke:#F0F0F0;stroke-width:9.72"/>
	<line x1="557.89" y1="2121.19" x2="622.69" y2="2121.19" style="stroke:#F0F0F0;stroke-width:9.72"/>
	<line x1="655.09" y1="2121.19" x2="719.89" y2="2121.19" style="stroke:#F0F0F0;stroke-width:9.72"/>
	<line x1="752.29" y1="2121.19" x2="817.09" y2="2121.19" style="stroke:#F0F0F0;stroke-width:9.72"/>
	<line x1="849.49" y1="2121.19" x2="914.29" y2="2121.19" style="stroke:#F0F0F0;stroke-width:9.72"/>
	<line x1="946.69" y1="2121.19" x2="1011.49" y2="2121.19" style="stroke:#F0F0F0;stroke-width:9.72"/>
	<line x1="1043.89" y1="2121.19" x2="1108.69" y2="2121.19" style="stroke:#F0F0F0;stroke-width:9.72"/>
	<line x1="1141.09" y1="2121.19" x2="1205.89" y2="2121.19" style="stroke:#F0F0F0;stroke-width:9.72"/>
	<line x1="1238.29" y1="2121.19" x2="1303.09" y2="2121.19" style="stroke:#F0F0F0;stroke-width:9.72"/>
	<line x1="1335.49" y1="2121.19" x2="1400.29" y2="2121.19" style="stroke:#F0F0F0;stroke-width:9.72"/>
	<line x1="1432.69" y1="2121.19" x2="1497.49" y2="2121.19" style="stroke:#F0F0F0;stroke-width:9.72"/>
	<line x1="1529.89" y1="2121.19" x2="1594.69" y2="2121.19" style="stroke:#F0F0F0;stroke-width:9.72"/>
	<line x1="1627.09" y1="2121.19" x2="1691.89" y2="2121.19" style="stroke:#F0F0F0;stroke-width:9.72"/>
	<line x1="1724.29" y1="2121.19" x2="1789.09" y2="2121.19" style="stroke:#F0F0F0;stroke-width:9.72"/>
	<line x1="1821.49" y1="2121.19" x2="1886.29" y2="2121.19" style="stroke:#F0F0F0;stroke-width:9.72"/>
	<line x1="1918.69" y1="2121.19" x2="1983.49" y2="2121.19" style="stroke:#F0F0F0;stroke-width:9.72"/>
	<line x1="2015.89" y1="2121.19" x2="2080.69" y2="2121.19" style="stroke:#F0F0F0;stroke-width:9.72"/>
	<line x1="2113.09" y1="2121.19" x2="2177.89" y2="2121.19" style="stroke:#F0F0F0;stroke-width:9.72"/>
	<line x1="2210.29" y1="2121.19" x2="2275.09" y2="2121.19" style="stroke:#F0F0F0;stroke-width:9.72"/>
	<line x1="2307.49" y1="2121.19" x2="2372.29" y2="2121.19" style="stroke:#F0F0F0;stroke-width:9.72"/>
	<line x1="2404.69" y1="2121.19" x2="2469.49" y2="2121.19" style="stroke:#F0F0F0;stroke-width:9.72"/>
	<line x1="2501.89" y1="2121.19" x2="2566.69" y2="2121.19" style="stroke:#F0F0F0;stroke-width:9.72"/>
	<line x1="2599.09" y1="2121.19" x2="2663.89" y2="2121.19" style="stroke:#F0F0F0;stroke-width:9.72"/>
	<line x1="2696.29" y1="2121.19" x2="2761.09" y2="2121.19" style="stroke:#F0F0F0;stroke-width:9.72"/>
	<line x1="2793.49" y1="2121.19" x2="2858.29" y2="2121.19" style="stroke:#F0F0F0;stroke-width:9.72"/>
	<line x1="2890.69" y1="2121.19" x2="2955.49" y2="2121.19" style="stroke:#F0F0F0;stroke-width:9.72"/>
	<line x1="2987.89" y1="2121.19" x2="3052.69" y2="2121.19" style="stroke:#F0F0F0;stroke-width:9.72"/>
	<line x1="3085.09" y1="2121.19" x2="3149.89" y2="2121.19" style="stroke:#F0F0F0;stroke-width:9.72"/>
	<line x1="3182.29" y1="2121.19" x2="3247.09" y2="2121.19" style="stroke:#F0F0F0;stroke-width:9.72"/>
	<line x1="3279.49" y1="2121.19" x2="3344.29" y2="2121.19" style="stroke:#F0F0F0;stroke-width:9.72"/>
	<line x1="557.89" y1="1475.72" x2="622.69" y2="1475.72" style="stroke:#F0F0F0;stroke-width:9.72"/>
	<line x1="655.09" y1="1475.72" x2="719.89" y2="1475.72" style="stroke:#F0F0F0;stroke-width:9.72"/>
	<line x1="752.29" y1="1475.72" x2="817.09" y2="1475.72" style="stroke:#F0F0F0;stroke-width:9.72"/>
	<line x1="849.49" y1="1475.72" x2="914.29" y2="1475.72" style="stroke:#F0F0F0;stroke-width:9.72"/>
	<line x1="946.69" y1="1475.72" x2="1011.49" y2="1475.72" style="stroke:#F0F0F0;stroke-width:9.72"/>
	<line x1="1043.89" y1="1475.72" x2="1108.69" y2="1475.72" style="stroke:#F0F0F0;stroke-width:9.72"/>
	<line x1="1141.09" y1="1475.72" x2="1205.89" y2="1475.72" style="stroke:#F0F0F0;stroke-width:9.72"/>
	<line x1="1238.29" y1="1475.72" x2="1303.09" y2="1475.72" style="stroke:#F0F0F0;stroke-width:9.72"/>
	<line x1="1335.49" y1="1475.72" x2="1400.29" y2="1475.72" style="stroke:#F0F0F0;stroke-width:9.72"/>
	<line x1="1432.69" y1="1475.72" x2="1497.49" y2="1475.72" style="stroke:#F0F0F0;stroke-width:9.72"/>
	<line x1="1529.89" y1="1475.72" x2="1594.69" y2="1475.72" style="stroke:#F0F0F0;stroke-width:9.72"/>
	<line x1="1627.09" y1="1475.72" x2="1691.89" y2="1475.72" style="stroke:#F0F0F0;stroke-width:9.72"/>
	<line x1="1724.29" y1="1475.72" x2="1789.09" y2="1475.72" style="stroke:#F0F0F0;stroke-width:9.72"/>
	<line x1="1821.49" y1="1475.72" x2="1886.29" y2="1475.72" style="stroke:#F0F0F0;stroke-width:9.72"/>
	<line x1="1918.69" y1="1475.72" x2="1983.49" y2="1475.72" style="stroke:#F0F0F0;stroke-width:9.72"/>
	<line x1="2015.89" y1="1475.72" x2="2080.69" y2="1475.72" style="stroke:#F0F0F0;stroke-width:9.72"/>
	<line x1="2113.09" y1="1475.72" x2="2177.89" y2="1475.72" style="stroke:#F0F0F0;stroke-width:9.72"/>
	<line x1="2210.29" y1="1475.72" x2="2275.09" y2="1475.72" style="stroke:#F0F0F0;stroke-width:9.72"/>
	<line x1="2307.49" y1="1475.72" x2="2372.29" y2="1475.72" style="stroke:#F0F0F0;stroke-width:9.72"/>
	<line x1="2404.69" y1="1475.72" x2="2469.49" y2="1475.72" style="stroke:#F0F0F0;stroke-width:9.72"/>
	<line x1="2501.89" y1="1475.72" x2="2566.69" y2="1475.72" style="stroke:#F0F0F0;stroke-width:9.72"/>
	<line x1="2599.09" y1="1475.72" x2="2663.89" y2="1475.72" style="stroke:#F0F0F0;stroke-width:9.72"/>
	<line x1="2696.29" y1="1475.72" x2="2761.09" y2="1475.72" style="stroke:#F0F0F0;stroke-width:9.72"/>
	<line x1="2793.49" y1="1475.72" x2="2858.29" y2="1475.72" style="stroke:#F0F0F0;stroke-width:9.72"/>
	<line x1="2890.69" y1="1475.72" x2="2955.49" y2="1475.72" style="stroke:#F0F0F0;stroke-width:9.72"/>
	<line x1="2987.89" y1="1475.72" x2="3052.69" y2="1475.72" style="stroke:#F0F0F0;stroke-width:9.72"/>
	<line x1="3085.09" y1="1475.72" x2="3149.89" y2="1475.72" style="stroke:#F0F0F0;stroke-width:9.72"/>
	<line x1="3182.29" y1="1475.72" x2="3247.09" y2="1475.72" style="stroke:#F0F0F0;stroke-width:9.72"/>
	<line x1="3279.49" y1="1475.72" x2="3344.29" y2="1475.72" style="stroke:#F0F0F0;stroke-width:9.72"/>
	<line x1="557.89" y1="830.08" x2="622.69" y2="830.08" style="stroke:#F0F0F0;stroke-width:9.72"/>
	<line x1="655.09" y1="830.08" x2="719.89" y2="830.08" style="stroke:#F0F0F0;stroke-width:9.72"/>
	<line x1="752.29" y1="830.08" x2="817.09" y2="830.08" style="stroke:#F0F0F0;stroke-width:9.72"/>
	<line x1="849.49" y1="830.08" x2="914.29" y2="830.08" style="stroke:#F0F0F0;stroke-width:9.72"/>
	<line x1="946.69" y1="830.08" x2="1011.49" y2="830.08" style="stroke:#F0F0F0;stroke-width:9.72"/>
	<line x1="1043.89" y1="830.08" x2="1108.69" y2="830.08" style="stroke:#F0F0F0;stroke-width:9.72"/>
	<line x1="1141.09" y1="830.08" x2="1205.89" y2="830.08" style="stroke:#F0F0F0;stroke-width:9.72"/>
	<line x1="1238.29" y1="830.08" x2="1303.09" y2="830.08" style="stroke:#F0F0F0;stroke-width:9.72"/>
	<line x1="1335.49" y1="830.08" x2="1400.29" y2="830.08" style="stroke:#F0F0F0;stroke-width:9.72"/>
	<line x1="1432.69" y1="830.08" x2="1497.49" y2="830.08" style="stroke:#F0F0F0;stroke-width:9.72"/>
	<line x1="1529.89" y1="830.08" x2="1594.69" y2="830.08" style="stroke:#F0F0F0;stroke-width:9.72"/>
	<line x1="1627.09" y1="830.08" x2="1691.89" y2="830.08" style="stroke:#F0F0F0;stroke-width:9.72"/>
	<line x1="1724.29" y1="830.08" x2="1789.09" y2="830.08" style="stroke:#F0F0F0;stroke-width:9.72"/>
	<line x1="1821.49" y1="830.08" x2="1886.29" y2="830.08" style="stroke:#F0F0F0;stroke-width:9.72"/>
	<line x1="1918.69" y1="830.08" x2="1983.49" y2="830.08" style="stroke:#F0F0F0;stroke-width:9.72"/>
	<line x1="2015.89" y1="830.08" x2="2080.69" y2="830.08" style="stroke:#F0F0F0;stroke-width:9.72"/>
	<line x1="2113.09" y1="830.08" x2="2177.89" y2="830.08" style="stroke:#F0F0F0;stroke-width:9.72"/>
	<line x1="2210.29" y1="830.08" x2="2275.09" y2="830.08" style="stroke:#F0F0F0;stroke-width:9.72"/>
	<line x1="2307.49" y1="830.08" x2="2372.29" y2="830.08" style="stroke:#F0F0F0;stroke-width:9.72"/>
	<line x1="2404.69" y1="830.08" x2="2469.49" y2="830.08" style="stroke:#F0F0F0;stroke-width:9.72"/>
	<line x1="2501.89" y1="830.08" x2="2566.69" y2="830.08" style="stroke:#F0F0F0;stroke-width:9.72"/>
	<line x1="2599.09" y1="830.08" x2="2663.89" y2="830.08" style="stroke:#F0F0F0;stroke-width:9.72"/>
	<line x1="2696.29" y1="830.08" x2="2761.09" y2="830.08" style="stroke:#F0F0F0;stroke-width:9.72"/>
	<line x1="2793.49" y1="830.08" x2="2858.29" y2="830.08" style="stroke:#F0F0F0;stroke-width:9.72"/>
	<line x1="2890.69" y1="830.08" x2="2955.49" y2="830.08" style="stroke:#F0F0F0;stroke-width:9.72"/>
	<line x1="2987.89" y1="830.08" x2="3052.69" y2="830.08" style="stroke:#F0F0F0;stroke-width:9.72"/>
	<line x1="3085.09" y1="830.08" x2="3149.89" y2="830.08" style="stroke:#F0F0F0;stroke-width:9.72"/>
	<line x1="3182.29" y1="830.08" x2="3247.09" y2="830.08" style="stroke:#F0F0F0;stroke-width:9.72"/>
	<line x1="3279.49" y1="830.08" x2="3344.29" y2="830.08" style="stroke:#F0F0F0;stroke-width:9.72"/>
	<line x1="557.89" y1="184.61" x2="622.69" y2="184.61" style="stroke:#F0F0F0;stroke-width:9.72"/>
	<line x1="655.09" y1="184.61" x2="719.89" y2="184.61" style="stroke:#F0F0F0;stroke-width:9.72"/>
	<line x1="752.29" y1="184.61" x2="817.09" y2="184.61" style="stroke:#F0F0F0;stroke-width:9.72"/>
	<line x1="849.49" y1="184.61" x2="914.29" y2="184.61" style="stroke:#F0F0F0;stroke-width:9.72"/>
	<line x1="946.69" y1="184.61" x2="1011.49" y2="184.61" style="stroke:#F0F0F0;stroke-width:9.72"/>
	<line x1="1043.89" y1="184.61" x2="1108.69" y2="184.61" style="stroke:#F0F0F0;stroke-width:9.72"/>
	<line x1="1141.09" y1="184.61" x2="1205.89" y2="184.61" style="stroke:#F0F0F0;stroke-width:9.72"/>
	<line x1="1238.29" y1="184.61" x2="1303.09" y2="184.61" style="stroke:#F0F0F0;stroke-width:9.72"/>
	<line x1="1335.49" y1="184.61" x2="1400.29" y2="184.61" style="stroke:#F0F0F0;stroke-width:9.72"/>
	<line x1="1432.69" y1="184.61" x2="1497.49" y2="184.61" style="stroke:#F0F0F0;stroke-width:9.72"/>
	<line x1="1529.89" y1="184.61" x2="1594.69" y2="184.61" style="stroke:#F0F0F0;stroke-width:9.72"/>
	<line x1="1627.09" y1="184.61" x2="1691.89" y2="184.61" style="stroke:#F0F0F0;stroke-width:9.72"/>
	<line x1="1724.29" y1="184.61" x2="1789.09" y2="184.61" style="stroke:#F0F0F0;stroke-width:9.72"/>
	<line x1="1821.49" y1="184.61" x2="1886.29" y2="184.61" style="stroke:#F0F0F0;stroke-width:9.72"/>
	<line x1="1918.69" y1="184.61" x2="1983.49" y2="184.61" style="stroke:#F0F0F0;stroke-width:9.72"/>
	<line x1="2015.89" y1="184.61" x2="2080.69" y2="184.61" style="stroke:#F0F0F0;stroke-width:9.72"/>
	<line x1="2113.09" y1="184.61" x2="2177.89" y2="184.61" style="stroke:#F0F0F0;stroke-width:9.72"/>
	<line x1="2210.29" y1="184.61" x2="2275.09" y2="184.61" style="stroke:#F0F0F0;stroke-width:9.72"/>
	<line x1="2307.49" y1="184.61" x2="2372.29" y2="184.61" style="stroke:#F0F0F0;stroke-width:9.72"/>
	<line x1="2404.69" y1="184.61" x2="2469.49" y2="184.61" style="stroke:#F0F0F0;stroke-width:9.72"/>
	<line x1="2501.89" y1="184.61" x2="2566.69" y2="184.61" style="stroke:#F0F0F0;stroke-width:9.72"/>
	<line x1="2599.09" y1="184.61" x2="2663.89" y2="184.61" style="stroke:#F0F0F0;stroke-width:9.72"/>
	<line x1="2696.29" y1="184.61" x2="2761.09" y2="184.61" style="stroke:#F0F0F0;stroke-width:9.72"/>
	<line x1="2793.49" y1="184.61" x2="2858.29" y2="184.61" style="stroke:#F0F0F0;stroke-width:9.72"/>
	<line x1="2890.69" y1="184.61" x2="2955.49" y2="184.61" style="stroke:#F0F0F0;stroke-width:9.72"/>
	<line x1="2987.89" y1="184.61" x2="3052.69" y2="184.61" style="stroke:#F0F0F0;stroke-width:9.72"/>
	<line x1="3085.09" y1="184.61" x2="3149.89" y2="184.61" style="stroke:#F0F0F0;stroke-width:9.72"/>
	<line x1="3182.29" y1="184.61" x2="3247.09" y2="184.61" style="stroke:#F0F0F0;stroke-width:9.72"/>
	<line x1="3279.49" y1="184.61" x2="3344.29" y2="184.61" style="stroke:#F0F0F0;stroke-width:9.72"/>
	<line x1="629.27" y1="2766.66" x2="629.27" y2="2701.86" style="stroke:#F0F0F0;stroke-width:9.72"/>
	<line x1="629.27" y1="2669.46" x2="629.27" y2="2604.66" style="stroke:#F0F0F0;stroke-width:9.72"/>
	<line x1="629.27" y1="2572.26" x2="629.27" y2="2507.46" style="stroke:#F0F0F0;stroke-width:9.72"/>
	<line x1="629.27" y1="2475.06" x2="629.27" y2="2410.26" style="stroke:#F0F0F0;stroke-width:9.72"/>
	<line x1="629.27" y1="2377.86" x2="629.27" y2="2313.06" style="stroke:#F0F0F0;stroke-width:9.72"/>
	<line x1="629.27" y1="2280.66" x2="629.27" y2="2215.86" style="stroke:#F0F0F0;stroke-width:9.72"/>
	<line x1="629.27" y1="2183.46" x2="629.27" y2="2118.66" style="stroke:#F0F0F0;stroke-width:9.72"/>
	<line x1="629.27" y1="2086.26" x2="629.27" y2="2021.46" style="stroke:#F0F0F0;stroke-width:9.72"/>
	<line x1="629.27" y1="1989.06" x2="629.27" y2="1924.26" style="stroke:#F0F0F0;stroke-width:9.72"/>
	<line x1="629.27" y1="1891.86" x2="629.27" y2="1827.06" style="stroke:#F0F0F0;stroke-width:9.72"/>
	<line x1="629.27" y1="1794.66" x2="629.27" y2="1729.86" style="stroke:#F0F0F0;stroke-width:9.72"/>
	<line x1="629.27" y1="1697.46" x2="629.27" y2="1632.66" style="stroke:#F0F0F0;stroke-width:9.72"/>
	<line x1="629.27" y1="1600.26" x2="629.27" y2="1535.46" style="stroke:#F0F0F0;stroke-width:9.72"/>
	<line x1="629.27" y1="1503.06" x2="629.27" y2="1438.26" style="stroke:#F0F0F0;stroke-width:9.72"/>
	<line x1="629.27" y1="1405.86" x2="629.27" y2="1341.06" style="stroke:#F0F0F0;stroke-width:9.72"/>
	<line x1="629.27" y1="1308.66" x2="629.27" y2="1243.86" style="stroke:#F0F0F0;stroke-width:9.72"/>
	<line x1="629.27" y1="1211.46" x2="629.27" y2="1146.66" style="stroke:#F0F0F0;stroke-width:9.72"/>
	<line x1="629.27" y1="1114.26" x2="629.27" y2="1049.46" style="stroke:#F0F0F0;stroke-width:9.72"/>
	<line x1="629.27" y1="1017.06" x2="629.27" y2="952.26" style="stroke:#F0F0F0;stroke-width:9.72"/>
	<line x1="629.27" y1="919.86" x2="629.27" y2="855.06" style="stroke:#F0F0F0;stroke-width:9.72"/>
	<line x1="629.27" y1="822.66" x2="629.27" y2="757.86" style="stroke:#F0F0F0;stroke-width:9.72"/>
	<line x1="629.27" y1="725.46" x2="629.27" y2="660.66" style="stroke:#F0F0F0;stroke-width:9.72"/>
	<line x1="629.27" y1="628.26" x2="629.27" y2="563.46" style="stroke:#F0F0F0;stroke-width:9.72"/>
	<line x1="629.27" y1="531.06" x2="629.27" y2="466.26" style="stroke:#F0F0F0;stroke-width:9.72"/>
	<line x1="629.27" y1="433.86" x2="629.27" y2="369.06" style="stroke:#F0F0F0;stroke-width:9.72"/>
	<line x1="629.27" y1="336.66" x2="629.27" y2="271.86" style="stroke:#F0F0F0;stroke-width:9.72"/>
	<line x1="629.27" y1="239.46" x2="629.27" y2="174.66" style="stroke:#F0F0F0;stroke-width:9.72"/>
	<line x1="629.27" y1="142.26" x2="629.27" y2="113.40" style="stroke:#F0F0F0;stroke-width:9.72"/>
	<line x1="1297.52" y1="2766.66" x2="1297.52" y2="2701.86" style="stroke:#F0F0F0;stroke-width:9.72"/>
	<line x1="1297.52" y1="2669.46" x2="1297.52" y2="2604.66" style="stroke:#F0F0F0;stroke-width:9.72"/>
	<line x1="1297.52" y1="2572.26" x2="1297.52" y2="2507.46" style="stroke:#F0F0F0;stroke-width:9.72"/>
	<line x1="1297.52" y1="2475.06" x2="1297.52" y2="2410.26" style="stroke:#F0F0F0;stroke-width:9.72"/>
	<line x1="1297.52" y1="2377.86" x2="1297.52" y2="2313.06" style="stroke:#F0F0F0;stroke-width:9.72"/>
	<line x1="1297.52" y1="2280.66" x2="1297.52" y2="2215.86" style="stroke:#F0F0F0;stroke-width:9.72"/>
	<line x1="1297.52" y1="2183.46" x2="1297.52" y2="2118.66" style="stroke:#F0F0F0;stroke-width:9.72"/>
	<line x1="1297.52" y1="2086.26" x2="1297.52" y2="2021.46" style="stroke:#F0F0F0;stroke-width:9.72"/>
	<line x1="1297.52" y1="1989.06" x2="1297.52" y2="1924.26" style="stroke:#F0F0F0;stroke-width:9.72"/>
	<line x1="1297.52" y1="1891.86" x2="1297.52" y2="1827.06" style="stroke:#F0F0F0;stroke-width:9.72"/>
	<line x1="1297.52" y1="1794.66" x2="1297.52" y2="1729.86" style="stroke:#F0F0F0;stroke-width:9.72"/>
	<line x1="1297.52" y1="1697.46" x2="1297.52" y2="1632.66" style="stroke:#F0F0F0;stroke-width:9.72"/>
	<line x1="1297.52" y1="1600.26" x2="1297.52" y2="1535.46" style="stroke:#F0F0F0;stroke-width:9.72"/>
	<line x1="1297.52" y1="1503.06" x2="1297.52" y2="1438.26" style="stroke:#F0F0F0;stroke-width:9.72"/>
	<line x1="1297.52" y1="1405.86" x2="1297.52" y2="1341.06" style="stroke:#F0F0F0;stroke-width:9.72"/>
	<line x1="1297.52" y1="1308.66" x2="1297.52" y2="1243.86" style="stroke:#F0F0F0;stroke-width:9.72"/>
	<line x1="1297.52" y1="1211.46" x2="1297.52" y2="1146.66" style="stroke:#F0F0F0;stroke-width:9.72"/>
	<line x1="1297.52" y1="1114.26" x2="1297.52" y2="1049.46" style="stroke:#F0F0F0;stroke-width:9.72"/>
	<line x1="1297.52" y1="1017.06" x2="1297.52" y2="952.26" style="stroke:#F0F0F0;stroke-width:9.72"/>
	<line x1="1297.52" y1="919.86" x2="1297.52" y2="855.06" style="stroke:#F0F0F0;stroke-width:9.72"/>
	<line x1="1297.52" y1="822.66" x2="1297.52" y2="757.86" style="stroke:#F0F0F0;stroke-width:9.72"/>
	<line x1="1297.52" y1="725.46" x2="1297.52" y2="660.66" style="stroke:#F0F0F0;stroke-width:9.72"/>
	<line x1="1297.52" y1="628.26" x2="1297.52" y2="563.46" style="stroke:#F0F0F0;stroke-width:9.72"/>
	<line x1="1297.52" y1="531.06" x2="1297.52" y2="466.26" style="stroke:#F0F0F0;stroke-width:9.72"/>
	<line x1="1297.52" y1="433.86" x2="1297.52" y2="369.06" style="stroke:#F0F0F0;stroke-width:9.72"/>
	<line x1="1297.52" y1="336.66" x2="1297.52" y2="271.86" style="stroke:#F0F0F0;stroke-width:9.72"/>
	<line x1="1297.52" y1="239.46" x2="1297.52" y2="174.66" style="stroke:#F0F0F0;stroke-width:9.72"/>
	<line x1="1297.52" y1="142.26" x2="1297.52" y2="113.40" style="stroke:#F0F0F0;stroke-width:9.72"/>
	<line x1="1965.60" y1="2766.66" x2="1965.60" y2="2701.86" style="stroke:#F0F0F0;stroke-width:9.72"/>
	<line x1="1965.60" y1="2669.46" x2="1965.60" y2="2604.66" style="stroke:#F0F0F0;stroke-width:9.72"/>
	<line x1="1965.60" y1="2572.26" x2="1965.60" y2="2507.46" style="stroke:#F0F0F0;stroke-width:9.72"/>
	<line x1="1965.60" y1="2475.06" x2="1965.60" y2="2410.26" style="stroke:#F0F0F0;stroke-width:9.72"/>
	<line x1="1965.60" y1="2377.86" x2="1965.60" y2="2313.06" style="stroke:#F0F0F0;stroke-width:9.72"/>
	<line x1="1965.60" y1="2280.66" x2="1965.60" y2="2215.86" style="stroke:#F0F0F0;stroke-width:9.72"/>
	<line x1="1965.60" y1="2183.46" x2="1965.60" y2="2118.66" style="stroke:#F0F0F0;stroke-width:9.72"/>
	<line x1="1965.60" y1="2086.26" x2="1965.60" y2="2021.46" style="stroke:#F0F0F0;stroke-width:9.72"/>
	<line x1="1965.60" y1="1989.06" x2="1965.60" y2="1924.26" style="stroke:#F0F0F0;stroke-width:9.72"/>
	<line x1="1965.60" y1="1891.86" x2="1965.60" y2="1827.06" style="stroke:#F0F0F0;stroke-width:9.72"/>
	<line x1="1965.60" y1="1794.66" x2="1965.60" y2="1729.86" style="stroke:#F0F0F0;stroke-width:9.72"/>
	<line x1="1965.60" y1="1697.46" x2="1965.60" y2="1632.66" style="stroke:#F0F0F0;stroke-width:9.72"/>
	<line x1="1965.60" y1="1600.26" x2="1965.60" y2="1535.46" style="stroke:#F0F0F0;stroke-width:9.72"/>
	<line x1="1965.60" y1="1503.06" x2="1965.60" y2="1438.26" style="stroke:#F0F0F0;stroke-width:9.72"/>
	<line x1="1965.60" y1="1405.86" x2="1965.60" y2="1341.06" style="stroke:#F0F0F0;stroke-width:9.72"/>
	<line x1="1965.60" y1="1308.66" x2="1965.60" y2="1243.86" style="stroke:#F0F0F0;stroke-width:9.72"/>
	<line x1="1965.60" y1="1211.46" x2="1965.60" y2="1146.66" style="stroke:#F0F0F0;stroke-width:9.72"/>
	<line x1="1965.60" y1="1114.26" x2="1965.60" y2="1049.46" style="stroke:#F0F0F0;stroke-width:9.72"/>
	<line x1="1965.60" y1="1017.06" x2="1965.60" y2="952.26" style="stroke:#F0F0F0;stroke-width:9.72"/>
	<line x1="1965.60" y1="919.86" x2="1965.60" y2="855.06" style="stroke:#F0F0F0;stroke-width:9.72"/>
	<line x1="1965.60" y1="822.66" x2="1965.60" y2="757.86" style="stroke:#F0F0F0;stroke-width:9.72"/>
	<line x1="1965.60" y1="725.46" x2="1965.60" y2="660.66" style="stroke:#F0F0F0;stroke-width:9.72"/>
	<line x1="1965.60" y1="628.26" x2="1965.60" y2="563.46" style="stroke:#F0F0F0;stroke-width:9.72"/>
	<line x1="1965.60" y1="531.06" x2="1965.60" y2="466.26" style="stroke:#F0F0F0;stroke-width:9.72"/>
	<line x1="1965.60" y1="433.86" x2="1965.60" y2="369.06" style="stroke:#F0F0F0;stroke-width:9.72"/>
	<line x1="1965.60" y1="336.66" x2="1965.60" y2="271.86" style="stroke:#F0F0F0;stroke-width:9.72"/>
	<line x1="1965.60" y1="239.46" x2="1965.60" y2="174.66" style="stroke:#F0F0F0;stroke-width:9.72"/>
	<line x1="1965.60" y1="142.26" x2="1965.60" y2="113.40" style="stroke:#F0F0F0;stroke-width:9.72"/>
	<line x1="2633.85" y1="2766.66" x2="2633.85" y2="2701.86" style="stroke:#F0F0F0;stroke-width:9.72"/>
	<line x1="2633.85" y1="2669.46" x2="2633.85" y2="2604.66" style="stroke:#F0F0F0;stroke-width:9.72"/>
	<line x1="2633.85" y1="2572.26" x2="2633.85" y2="2507.46" style="stroke:#F0F0F0;stroke-width:9.72"/>
	<line x1="2633.85" y1="2475.06" x2="2633.85" y2="2410.26" style="stroke:#F0F0F0;stroke-width:9.72"/>
	<line x1="2633.85" y1="2377.86" x2="2633.85" y2="2313.06" style="stroke:#F0F0F0;stroke-width:9.72"/>
	<line x1="2633.85" y1="2280.66" x2="2633.85" y2="2215.86" style="stroke:#F0F0F0;stroke-width:9.72"/>
	<line x1="2633.85" y1="2183.46" x2="2633.85" y2="2118.66" style="stroke:#F0F0F0;stroke-width:9.72"/>
	<line x1="2633.85" y1="2086.26" x2="2633.85" y2="2021.46" style="stroke:#F0F0F0;stroke-width:9.72"/>
	<line x1="2633.85" y1="1989.06" x2="2633.85" y2="1924.26" style="stroke:#F0F0F0;stroke-width:9.72"/>
	<line x1="2633.85" y1="1891.86" x2="2633.85" y2="1827.06" style="stroke:#F0F0F0;stroke-width:9.72"/>
	<line x1="2633.85" y1="1794.66" x2="2633.85" y2="1729.86" style="stroke:#F0F0F0;stroke-width:9.72"/>
	<line x1="2633.85" y1="1697.46" x2="2633.85" y2="1632.66" style="stroke:#F0F0F0;stroke-width:9.72"/>
	<line x1="2633.85" y1="1600.26" x2="2633.85" y2="1535.46" style="stroke:#F0F0F0;stroke-width:9.72"/>
	<line x1="2633.85" y1="1503.06" x2="2633.85" y2="1438.26" style="stroke:#F0F0F0;stroke-width:9.72"/>
	<line x1="2633.85" y1="1405.86" x2="2633.85" y2="1341.06" style="stroke:#F0F0F0;stroke-width:9.72"/>
	<line x1="2633.85" y1="1308.66" x2="2633.85" y2="1243.86" style="stroke:#F0F0F0;stroke-width:9.72"/>
	<line x1="2633.85" y1="1211.46" x2="2633.85" y2="1146.66" style="stroke:#F0F0F0;stroke-width:9.72"/>
	<line x1="2633.85" y1="1114.26" x2="2633.85" y2="1049.46" style="stroke:#F0F0F0;stroke-width:9.72"/>
	<line x1="2633.85" y1="1017.06" x2="2633.85" y2="952.26" style="stroke:#F0F0F0;stroke-width:9.72"/>
	<line x1="2633.85" y1="919.86" x2="2633.85" y2="855.06" style="stroke:#F0F0F0;stroke-width:9.72"/>
	<line x1="2633.85" y1="822.66" x2="2633.85" y2="757.86" style="stroke:#F0F0F0;stroke-width:9.72"/>
	<line x1="2633.85" y1="725.46" x2="2633.85" y2="660.66" style="stroke:#F0F0F0;stroke-width:9.72"/>
	<line x1="2633.85" y1="628.26" x2="2633.85" y2="563.46" style="stroke:#F0F0F0;stroke-width:9.72"/>
	<line x1="2633.85" y1="531.06" x2="2633.85" y2="466.26" style="stroke:#F0F0F0;stroke-width:9.72"/>
	<line x1="2633.85" y1="433.86" x2="2633.85" y2="369.06" style="stroke:#F0F0F0;stroke-width:9.72"/>
	<line x1="2633.85" y1="336.66" x2="2633.85" y2="271.86" style="stroke:#F0F0F0;stroke-width:9.72"/>
	<line x1="2633.85" y1="239.46" x2="2633.85" y2="174.66" style="stroke:#F0F0F0;stroke-width:9.72"/>
	<line x1="2633.85" y1="142.26" x2="2633.85" y2="113.40" style="stroke:#F0F0F0;stroke-width:9.72"/>
	<line x1="3302.10" y1="2766.66" x2="3302.10" y2="2701.86" style="stroke:#F0F0F0;stroke-width:9.72"/>
	<line x1="3302.10" y1="2669.46" x2="3302.10" y2="2604.66" style="stroke:#F0F0F0;stroke-width:9.72"/>
	<line x1="3302.10" y1="2572.26" x2="3302.10" y2="2507.46" style="stroke:#F0F0F0;stroke-width:9.72"/>
	<line x1="3302.10" y1="2475.06" x2="3302.10" y2="2410.26" style="stroke:#F0F0F0;stroke-width:9.72"/>
	<line x1="3302.10" y1="2377.86" x2="3302.10" y2="2313.06" style="stroke:#F0F0F0;stroke-width:9.72"/>
	<line x1="3302.10" y1="2280.66" x2="3302.10" y2="2215.86" style="stroke:#F0F0F0;stroke-width:9.72"/>
	<line x1="3302.10" y1="2183.46" x2="3302.10" y2="2118.66" style="stroke:#F0F0F0;stroke-width:9.72"/>
	<line x1="3302.10" y1="2086.26" x2="3302.10" y2="2021.46" style="stroke:#F0F0F0;stroke-width:9.72"/>
	<line x1="3302.10" y1="1989.06" x2="3302.10" y2="1924.26" style="stroke:#F0F0F0;stroke-width:9.72"/>
	<line x1="3302.10" y1="1891.86" x2="3302.10" y2="1827.06" style="stroke:#F0F0F0;stroke-width:9.72"/>
	<line x1="3302.10" y1="1794.66" x2="3302.10" y2="1729.86" style="stroke:#F0F0F0;stroke-width:9.72"/>
	<line x1="3302.10" y1="1697.46" x2="3302.10" y2="1632.66" style="stroke:#F0F0F0;stroke-width:9.72"/>
	<line x1="3302.10" y1="1600.26" x2="3302.10" y2="1535.46" style="stroke:#F0F0F0;stroke-width:9.72"/>
	<line x1="3302.10" y1="1503.06" x2="3302.10" y2="1438.26" style="stroke:#F0F0F0;stroke-width:9.72"/>
	<line x1="3302.10" y1="1405.86" x2="3302.10" y2="1341.06" style="stroke:#F0F0F0;stroke-width:9.72"/>
	<line x1="3302.10" y1="1308.66" x2="3302.10" y2="1243.86" style="stroke:#F0F0F0;stroke-width:9.72"/>
	<line x1="3302.10" y1="1211.46" x2="3302.10" y2="1146.66" style="stroke:#F0F0F0;stroke-width:9.72"/>
	<line x1="3302.10" y1="1114.26" x2="3302.10" y2="1049.46" style="stroke:#F0F0F0;stroke-width:9.72"/>
	<line x1="3302.10" y1="1017.06" x2="3302.10" y2="952.26" style="stroke:#F0F0F0;stroke-width:9.72"/>
	<line x1="3302.10" y1="919.86" x2="3302.10" y2="855.06" style="stroke:#F0F0F0;stroke-width:9.72"/>
	<line x1="3302.10" y1="822.66" x2="3302.10" y2="757.86" style="stroke:#F0F0F0;stroke-width:9.72"/>
	<line x1="3302.10" y1="725.46" x2="3302.10" y2="660.66" style="stroke:#F0F0F0;stroke-width:9.72"/>
	<line x1="3302.10" y1="628.26" x2="3302.10" y2="563.46" style="stroke:#F0F0F0;stroke-width:9.72"/>
	<line x1="3302.10" y1="531.06" x2="3302.10" y2="466.26" style="stroke:#F0F0F0;stroke-width:9.72"/>
	<line x1="3302.10" y1="433.86" x2="3302.10" y2="369.06" style="stroke:#F0F0F0;stroke-width:9.72"/>
	<line x1="3302.10" y1="336.66" x2="3302.10" y2="271.86" style="stroke:#F0F0F0;stroke-width:9.72"/>
	<line x1="3302.10" y1="239.46" x2="3302.10" y2="174.66" style="stroke:#F0F0F0;stroke-width:9.72"/>
	<line x1="3302.10" y1="142.26" x2="3302.10" y2="113.40" style="stroke:#F0F0F0;stroke-width:9.72"/>
	<rect x="1075.61" y="1993.78" width="372.09" height="772.88" style="fill:#FF8C19;fill-opacity:0.40"/>
	<rect x="1078.04" y="1996.21" width="367.23" height="768.02" style="fill:none;stroke:#5FAAFF;stroke-width:4.86"/>
	<rect x="1447.71" y="1027.69" width="372.09" height="1738.97" style="fill:#FF8C19;fill-opacity:0.40"/>
	<rect x="1450.14" y="1030.12" width="367.23" height="1734.11" style="fill:none;stroke:#5FAAFF;stroke-width:4.86"/>
	<rect x="1819.80" y="641.25" width="372.09" height="2125.41" style="fill:#FF8C19;fill-opacity:0.40"/>
	<rect x="1822.23" y="643.68" width="367.23" height="2120.55" style="fill:none;stroke:#5FAAFF;stroke-width:4.86"/>
	<rect x="2191.89" y="1993.78" width="372.09" height="772.88" style="fill:#FF8C19;fill-opacity:0.40"/>
	<rect x="2194.32" y="1996.21" width="367.23" height="768.02" style="fill:none;stroke:#5FAAFF;stroke-width:4.86"/>
	<rect x="2563.99" y="2380.22" width="372.09" height="386.44" style="fill:#FF8C19;fill-opacity:0.40"/>
	<rect x="2566.42" y="2382.65" width="367.23" height="381.58" style="fill:none;stroke:#5FAAFF;stroke-width:4.86"/>
	<path d=" M1075.44 2487.04 L1081.69 2478.26 L1087.93 2469.15 L1094.18 2460.04 L1100.42 2450.59 L1106.66 2440.80 L1112.91 2431.01 L1118.98 2420.89 L1125.22 2410.59 L1131.47 2400.13 L1137.71 2389.33 L1143.96 2378.36 L1150.20 2367.23 L1156.44 2355.75 L1162.52 2344.11 L1168.76 2332.29 L1175.01 2320.14 L1181.25 2307.82 L1187.49 2295.34 L1193.74 2282.51 L1199.98 2269.52 L1206.22 2256.19 L1212.30 2242.86 L1218.54 2229.02 L1224.79 2215.18 L1231.03 2201.01 L1237.28 2186.66 L1243.52 2172.15 L1249.76 2157.30 L1256.01 2142.28 L1262.08 2127.09 L1268.33 2111.57 L1274.57 2095.88 L1280.81 2080.01 L1287.06 2063.98 L1293.30 2047.61 L1299.54 2031.08 L1305.79 2014.37 L1311.86 1997.49 L1318.11 1980.45 L1324.35 1963.24 L1330.59 1945.69 L1336.84 1928.14 L1343.08 1910.25 L1349.33 1892.36 L1355.57 1874.14 L1361.64 1855.91 L1367.89 1837.35 L1374.13 1818.79 L1380.38 1800.06 L1386.62 1781.16 L1392.86 1762.26 L1399.11 1743.02 L1405.35 1723.78 L1411.43 1704.54 L1417.67 1684.97 L1423.91 1665.39 L1430.16 1645.82 L1436.40 1626.08 L1442.64 1606.33 L1448.89 1586.59 L1454.96 1566.68 L1461.21 1546.76 L1467.45 1526.68 L1473.69 1506.77 L1479.94 1486.69 L1486.18 1466.61 L1492.43 1446.69 L1498.67 1426.61 L1504.74 1406.70 L1510.99 1386.62 L1517.23 1366.71 L1523.48 1346.96 L1529.72 1327.05 L1535.96 1307.31 L1542.21 1287.73 L1548.45 1268.16 L1554.53 1248.75 L1560.77 1229.34 L1567.01 1210.28 L1573.26 1191.21 L1579.50 1172.14 L1585.74 1153.41 L1591.99 1134.84 L1598.23 1116.45 L1604.31 1098.22 L1610.55 1080.17 L1616.79 1062.28 L1623.04 1044.73 L1629.28 1027.35 L1635.53 1010.31 L1641.77 993.43 L1648.01 976.89 L1654.09 960.53 L1660.33 944.49 L1666.58 928.80 L1672.82 913.28 L1679.06 898.26 L1685.31 883.41 L1691.55 868.89 L1697.63 854.89 L1703.87 841.05 L1710.11 827.72 L1716.36 814.72 L1722.60 802.07 L1728.84 789.92 L1735.09 777.94 L1741.33 766.63 L1747.41 755.49 L1753.65 745.03 L1759.89 734.74 L1766.14 725.12 L1772.38 715.84 L1778.63 706.89 L1784.87 698.46 L1791.11 690.69 L1797.19 683.10 L1803.43 676.18 L1809.68 669.60 L1815.92 663.69 L1822.16 658.13 L1828.41 653.06 L1834.65 648.51 L1840.89 644.46 L1846.97 640.91 L1853.21 637.88 L1859.46 635.34 L1865.70 633.32 L1871.94 631.63 L1878.19 630.62 L1884.43 630.11 L1890.68 630.11 L1896.75 630.62 L1902.99 631.63 L1909.24 633.15 L1915.48 635.18 L1921.73 637.71 L1927.97 640.74 L1934.21 644.29 L1940.46 648.34 L1946.53 652.89 L1952.78 657.96 L1959.02 663.53 L1965.26 669.43 L1971.51 676.01 L1977.75 682.93 L1983.99 690.36 L1990.07 698.29 L1996.31 706.72 L2002.56 715.50 L2008.80 724.78 L2015.04 734.57 L2021.29 744.69 L2027.53 755.32 L2033.78 766.29 L2039.85 777.60 L2046.09 789.58 L2052.34 801.73 L2058.58 814.39 L2064.82 827.38 L2071.07 840.71 L2077.31 854.55 L2083.56 868.56 L2089.63 883.07 L2095.88 897.75 L2102.12 912.94 L2108.36 928.29 L2114.61 943.99 L2120.85 960.02 L2127.09 976.39 L2133.34 992.93 L2139.41 1009.80 L2145.66 1026.84 L2151.90 1044.22 L2158.14 1061.78 L2164.39 1079.66 L2170.63 1097.72 L2176.88 1115.94 L2183.12 1134.34 L2189.19 1152.90 L2195.44 1171.63 L2201.68 1190.53 L2207.93 1209.60 L2214.17 1228.84 L2220.41 1248.24 L2226.66 1267.65 L2232.90 1287.22 L2238.98 1306.80 L2245.22 1326.54 L2251.46 1346.29 L2257.71 1366.20 L2263.95 1386.11 L2270.19 1406.03 L2276.44 1426.11 L2282.51 1446.02 L2288.76 1466.10 L2295.00 1486.18 L2301.24 1506.09 L2307.49 1526.18 L2313.73 1546.09 L2319.98 1566.00 L2326.22 1585.91 L2332.29 1605.83 L2338.54 1625.57 L2344.78 1645.31 L2351.03 1664.89 L2357.27 1684.46 L2363.51 1703.87 L2369.76 1723.28 L2376.00 1742.51 L2382.07 1761.75 L2388.32 1780.65 L2394.56 1799.55 L2400.81 1818.28 L2407.05 1836.84 L2413.29 1855.41 L2419.54 1873.63 L2425.78 1891.86 L2431.86 1909.74 L2438.10 1927.63 L2444.34 1945.18 L2450.59 1962.73 L2456.83 1979.94 L2463.07 1997.16 L2469.32 2014.03 L2475.56 2030.74 L2481.64 2047.11 L2487.88 2063.48 L2494.13 2079.51 L2500.37 2095.54 L2506.61 2111.06 L2512.86 2126.59 L2519.10 2141.78 L2525.34 2156.96 L2531.42 2171.64 L2537.66 2186.32 L2543.91 2200.67 L2550.15 2214.84 L2556.39 2228.68 L2562.64 2242.35 L2568.88 2255.85 L2574.96 2269.18 L2581.20 2282.18 L2587.44 2294.83 L2593.69 2307.49 L2599.93 2319.81 L2606.18 2331.96 L2612.42 2343.77 L2618.66 2355.41 L2624.74 2366.89 L2630.98 2378.03 L2637.23 2388.99 L2643.47 2399.79 L2649.71 2410.26 L2655.96 2420.55 L2662.20 2430.68 L2668.44 2440.63 L2674.52 2450.25 L2680.76 2459.70 L2687.01 2468.98 L2693.25 2477.93 L2699.49 2486.87 L2705.74 2495.48 L2711.98 2503.74 L2718.23 2512.01 L2724.30 2520.11 L2730.54 2527.88 L2736.79 2535.47 L2743.03 2542.89 L2749.28 2550.15 L2755.52 2557.24 L2761.76 2564.16 L2768.01 2570.91 L2774.08 2577.32 L2780.33 2583.73 L2786.57 2589.98 L2792.81 2595.88 L2799.06 2601.79 L2805.30 2607.53 L2811.54 2612.93 L2817.79 2618.32 L2823.86 2623.56 L2830.11 2628.62 L2836.35 2633.51 L2842.59 2638.41 L2848.84 2642.96 L2855.08 2647.52 L2861.33 2651.91 L2867.40 2656.13 L2873.64 2660.18 L2879.89 2664.06 L2886.13 2667.94 L2892.38 2671.65 L2898.62 2675.36 L2904.86 2678.74 L2911.11 2682.11 L2917.18 2685.49 L2923.43 2688.53 L2929.67 2691.56 L2935.91 2694.60" stroke-linejoin="round" style="fill:none;stroke:#000000;stroke-width:9.72"/>
	<rect x="795.66" y="2399.29" width="391.33" height="367.37" style="fill:#198DFF;fill-opacity:0.50"/>
	<rect x="798.09" y="2401.72" width="386.47" height="362.51" style="fill:none;stroke:#5FAAFF;stroke-width:4.86"/>
	<rect x="1186.99" y="1664.55" width="391.50" height="1102.11" style="fill:#198DFF;fill-opacity:0.50"/>
	<rect x="1189.42" y="1666.98" width="386.64" height="1097.25" style="fill:none;stroke:#5FAAFF;stroke-width:4.86"/>
	<rect x="1578.49" y="929.98" width="391.50" height="1836.68" style="fill:#198DFF;fill-opacity:0.50"/>
	<rect x="1580.92" y="932.41" width="386.64" height="1831.82" style="fill:none;stroke:#5FAAFF;stroke-width:4.86"/>
	<rect x="1969.99" y="2399.29" width="391.33" height="367.37" style="fill:#198DFF;fill-opacity:0.50"/>
	<rect x="1972.42" y="2401.72" width="386.47" height="362.51" style="fill:none;stroke:#5FAAFF;stroke-width:4.86"/>
	<rect x="2361.32" y="929.98" width="391.50" height="1836.68" style="fill:#198DFF;fill-opacity:0.50"/>
	<rect x="2363.75" y="932.41" width="386.64" height="1831.82" style="fill:none;stroke:#5FAAFF;stroke-width:4.86"/>
	<line x1="557.89" y1="2766.66" x2="557.89" y2="113.40" style="stroke:#000000;stroke-width:6.48"/>
	<line x1="557.89" y1="2766.66" x2="513.00" y2="2766.66" style="stroke:#000000;stroke-width:6.48"/>
	<text x="490.39" y="2806.09" style="font-family:'Helvetica';font-size:112.56px;fill:#000000" text-anchor="end">0</text>
	<line x1="557.89" y1="2121.19" x2="513.00" y2="2121.19" style="stroke:#000000;stroke-width:6.48"/>
	<text x="490.39" y="2160.62" style="font-family:'Helvetica';font-size:112.56px;fill:#000000" text-anchor="end">.01</text>
	<line x1="557.89" y1="1475.72" x2="513.00" y2="1475.72" style="stroke:#000000;stroke-width:6.48"/>
	<text x="490.39" y="1515.16" style="font-family:'Helvetica';font-size:112.56px;fill:#000000" text-anchor="end">.02</text>
	<line x1="557.89" y1="830.08" x2="513.00" y2="830.08" style="stroke:#000000;stroke-width:6.48"/>
	<text x="490.39" y="869.52" style="font-family:'Helvetica';font-size:112.56px;fill:#000000" text-anchor="end">.03</text>
	<line x1="557.89" y1="184.61" x2="513.00" y2="184.61" style="stroke:#000000;stroke-width:6.48"/>
	<text x="490.39" y="224.05" style="font-family:'Helvetica';font-size:112.56px;fill:#000000" text-anchor="end">.04</text>
	<text x="214.55" y="1439.94" style="font-family:'Helvetica';font-size:112.56px;fill:#000000" transform="rotate(-90 214.55,1439.94)" text-anchor="middle">Density</text>
	<line x1="557.89" y1="2766.66" x2="3373.48" y2="2766.66" style="stroke:#000000;stroke-width:6.48"/>
	<line x1="629.27" y1="2766.66" x2="629.27" y2="2811.54" style="stroke:#000000;stroke-width:6.48"/>
	<text x="629.27" y="2912.86" style="font-family:'Helvetica';font-size:112.56px;fill:#000000" text-anchor="middle">20</text>
	<line x1="1297.52" y1="2766.66" x2="1297.52" y2="2811.54" style="stroke:#000000;stroke-width:6.48"/>
	<text x="1297.52" y="2912.86" style="font-family:'Helvetica';font-size:112.56px;fill:#000000" text-anchor="middle">40</text>
	<line x1="1965.60" y1="2766.66" x2="1965.60" y2="2811.54" style="stroke:#000000;stroke-width:6.48"/>
	<text x="1965.60" y="2912.86" style="font-family:'Helvetica';font-size:112.56px;fill:#000000" text-anchor="middle">60</text>
	<line x1="2633.85" y1="2766.66" x2="2633.85" y2="2811.54" style="stroke:#000000;stroke-width:6.48"/>
	<text x="2633.85" y="2912.86" style="font-family:'Helvetica';font-size:112.56px;fill:#000000" text-anchor="middle">80</text>
	<line x1="3302.10" y1="2766.66" x2="3302.10" y2="2811.54" style="stroke:#000000;stroke-width:6.48"/>
	<text x="3302.10" y="2912.86" style="font-family:'Helvetica';font-size:112.56px;fill:#000000" text-anchor="middle">100</text>
	<text x="1965.60" y="3070.31" style="font-family:'Helvetica';font-size:112.56px;fill:#000000" text-anchor="middle">age</text>
	<rect x="3412.29" y="1177.71" width="1835.49" height="524.64" style="fill:#FFFFFF"/>
	<rect x="3415.53" y="1180.95" width="1829.01" height="518.16" style="fill:none;stroke:#FFFFFF;stroke-width:6.48"/>
	<rect x="3460.89" y="1226.31" width="259.20" height="112.39" style="fill:#FF8C19;fill-opacity:0.40"/>
	<rect x="3463.32" y="1228.74" width="254.34" height="107.53" style="fill:none;stroke:#5FAAFF;stroke-width:4.86"/>
	<line x1="3460.89" y1="1439.94" x2="3720.09" y2="1439.94" style="stroke:#000000;stroke-width:9.72"/>
	<rect x="3460.89" y="1541.19" width="259.20" height="112.56" style="fill:#198DFF;fill-opacity:0.50"/>
	<rect x="3463.32" y="1543.62" width="254.34" height="107.70" style="fill:none;stroke:#5FAAFF;stroke-width:4.86"/>
	<text x="3787.59" y="1321.94" style="font-family:'Helvetica';font-size:112.56px;fill:#000000">Sampled from Normal</text>
	<text x="3787.59" y="1479.38" style="font-family:'Helvetica';font-size:112.56px;fill:#000000">Theoretical Normal</text>
	<text x="3787.59" y="1636.99" style="font-family:'Helvetica';font-size:112.56px;fill:#000000">Sampled from t-distribution</text>
</svg>
